<svg width="89" height="40" viewBox="0 0 89 40" fill="none" xmlns="http://www.w3.org/2000/svg">
<path d="M39.2746 17.4803H38.774V12.0941H39.2746V17.4803ZM41.8337 12.5544H41.0261V17.4803H40.5255V12.5544H39.718V12.0941H41.8337V12.5544ZM46.8488 15.9298L47.1799 16.269C47.0453 16.452 46.8865 16.6378 46.7034 16.8262L47.0345 17.4803H46.5096L46.3481 17.1815C46.0736 17.4291 45.7775 17.553 45.4598 17.553C45.0776 17.553 44.7654 17.4076 44.5231 17.1169C44.2809 16.8208 44.1597 16.479 44.1597 16.0913C44.1597 15.7791 44.227 15.5045 44.3616 15.2677C44.4962 15.0254 44.6954 14.7831 44.9592 14.5409C44.6308 13.9595 44.4666 13.475 44.4666 13.0873C44.4666 12.7859 44.5689 12.5328 44.7734 12.3283C44.9834 12.1237 45.2364 12.0214 45.5325 12.0214C45.8125 12.0214 46.044 12.1183 46.227 12.3121C46.41 12.5059 46.5016 12.7428 46.5016 13.0227C46.5016 13.2542 46.4477 13.4777 46.34 13.693C46.2324 13.9083 46.122 14.0752 46.009 14.1937C45.8959 14.3121 45.7425 14.4548 45.5487 14.6216L46.4773 16.3821C46.6173 16.2313 46.7411 16.0806 46.8488 15.9298ZM46.017 13.0066C46.017 12.8559 45.9686 12.7267 45.8717 12.619C45.7748 12.5113 45.6537 12.4575 45.5083 12.4575C45.3414 12.4575 45.2014 12.5194 45.0884 12.6432C44.9807 12.7616 44.9269 12.9043 44.9269 13.0712C44.9269 13.2219 44.9484 13.3754 44.9915 13.5315C45.0399 13.6876 45.0857 13.8087 45.1288 13.8949C45.1718 13.9756 45.2364 14.0914 45.3226 14.2421C45.7855 13.8653 46.017 13.4534 46.017 13.0066ZM46.122 16.7535L45.1772 14.977C44.8111 15.3646 44.6281 15.7387 44.6281 16.0994C44.6281 16.3417 44.7035 16.5651 44.8542 16.7697C45.0049 16.9689 45.1987 17.0684 45.4356 17.0684C45.651 17.0684 45.8798 16.9635 46.122 16.7535ZM52.9031 14.7105V17.4803H52.4509V14.8074C52.4509 14.3928 52.3109 14.1856 52.031 14.1856C51.9287 14.1856 51.8425 14.2098 51.7726 14.2583C51.7026 14.3013 51.6487 14.3552 51.611 14.4198C51.5734 14.479 51.5438 14.5597 51.5222 14.662C51.5061 14.7589 51.4953 14.8424 51.4899 14.9124C51.4845 14.9823 51.4818 15.0685 51.4818 15.1708V17.4803H51.0216V14.8155C51.0216 14.3955 50.895 14.1856 50.642 14.1856C50.5074 14.1856 50.3971 14.2179 50.3109 14.2825C50.2302 14.3471 50.171 14.4413 50.1333 14.5651C50.101 14.6889 50.0794 14.7993 50.0687 14.8962C50.0633 14.9877 50.0606 15.1035 50.0606 15.2434V17.4803H49.6084V13.8706H50.0606V14.1694C50.2867 13.9326 50.5209 13.8141 50.7631 13.8141C51.0592 13.8141 51.28 13.9541 51.4253 14.234C51.6353 13.9541 51.8829 13.8141 52.1682 13.8141C52.4428 13.8141 52.6339 13.8922 52.7416 14.0483C52.8493 14.2044 52.9031 14.4251 52.9031 14.7105ZM55.5422 17.4803H55.0819V17.1896C54.9096 17.4211 54.705 17.5368 54.4682 17.5368C54.312 17.5368 54.1775 17.4937 54.0644 17.4076C53.9514 17.3161 53.8652 17.2138 53.806 17.1007C53.7522 16.9823 53.7091 16.8316 53.6768 16.6485C53.6499 16.4601 53.6337 16.3067 53.6283 16.1882C53.623 16.0644 53.6203 15.9164 53.6203 15.7441C53.6203 15.5503 53.623 15.3888 53.6283 15.2596C53.6337 15.125 53.6526 14.9581 53.6849 14.7589C53.7172 14.5597 53.7629 14.3982 53.8222 14.2744C53.8814 14.1506 53.9675 14.0429 54.0806 13.9514C54.199 13.8599 54.3417 13.8141 54.5085 13.8141C54.7293 13.8141 54.9204 13.9137 55.0819 14.1129V13.8706H55.5422V17.4803ZM55.1303 15.6553C55.1303 15.4399 55.125 15.2596 55.1142 15.1142C55.1034 14.9635 55.0819 14.8101 55.0496 14.6539C55.0227 14.4978 54.9715 14.3794 54.8962 14.2986C54.8262 14.2179 54.7347 14.1775 54.6216 14.1775C54.2663 14.1775 54.0886 14.6055 54.0886 15.4615C54.0886 15.8491 54.0967 16.1398 54.1129 16.3336C54.1236 16.452 54.1344 16.5436 54.1452 16.6082C54.1613 16.6728 54.1855 16.7562 54.2178 16.8585C54.2501 16.9608 54.2986 17.0388 54.3632 17.0927C54.4332 17.1411 54.5166 17.1654 54.6135 17.1654C54.732 17.1654 54.8289 17.125 54.9042 17.0442C55.055 16.8935 55.1303 16.4305 55.1303 15.6553ZM57.4168 13.8141V14.339C57.2984 14.339 57.1988 14.3605 57.1181 14.4036C57.0373 14.4413 56.9754 14.4871 56.9323 14.5409C56.8946 14.5893 56.865 14.662 56.8435 14.7589C56.822 14.8558 56.8085 14.9393 56.8031 15.0093C56.8031 15.0739 56.8031 15.1681 56.8031 15.2919V17.4803H56.3509V13.8706H56.8031V14.339C56.9539 13.9998 57.1584 13.8249 57.4168 13.8141ZM60.0761 17.4803H59.5028L58.3803 15.7522V17.4803H57.9281V11.5934H58.3803V15.3403L59.2847 13.8706H59.7935L58.7599 15.4857L60.0761 17.4803ZM61.6271 16.2528H62.0874C62.0497 17.1088 61.7455 17.5368 61.1749 17.5368C60.475 17.5368 60.1251 16.9204 60.1251 15.6876C60.1251 15.4884 60.1385 15.2973 60.1655 15.1142C60.1924 14.9258 60.2381 14.7266 60.3027 14.5167C60.3673 14.3067 60.4723 14.1371 60.6177 14.0079C60.763 13.8787 60.938 13.8141 61.1426 13.8141C61.3417 13.8141 61.5113 13.8733 61.6513 13.9918C61.7913 14.1048 61.8909 14.2583 61.9501 14.4521C62.0147 14.6405 62.0578 14.8235 62.0793 15.0012C62.1062 15.1735 62.1197 15.3538 62.1197 15.5422C62.1197 15.5638 62.117 15.6014 62.1116 15.6553C62.1116 15.7091 62.1116 15.7468 62.1116 15.7683H60.5854V15.8491C60.5854 15.9675 60.5907 16.086 60.6015 16.2044C60.6177 16.3228 60.6419 16.4574 60.6742 16.6082C60.7119 16.7589 60.7711 16.88 60.8518 16.9715C60.938 17.0631 61.0403 17.1088 61.1587 17.1088C61.4548 17.1088 61.6109 16.8235 61.6271 16.2528ZM60.5934 15.3807H61.6675C61.6298 14.6163 61.4575 14.234 61.1506 14.234C60.8169 14.234 60.6311 14.6163 60.5934 15.3807ZM63.9889 14.2906H63.3833V17.4803H62.931V14.2906H62.5434V13.8706H62.931V12.8451H63.3833V13.8706H63.9889V14.2906ZM64.8547 17.4803H64.3944V13.8706H64.8547V17.4803ZM64.8628 12.4979C64.9274 12.5678 64.9597 12.6486 64.9597 12.7401C64.9597 12.8316 64.9274 12.9097 64.8628 12.9743C64.7982 13.0389 64.7201 13.0712 64.6286 13.0712C64.5371 13.0712 64.4563 13.0389 64.3864 12.9743C64.3217 12.9097 64.2894 12.8316 64.2894 12.7401C64.2894 12.6432 64.3217 12.5625 64.3864 12.4979C64.451 12.4279 64.5317 12.3929 64.6286 12.3929C64.7201 12.3929 64.7982 12.4279 64.8628 12.4979ZM67.5137 17.4803H67.0615V14.8558C67.0615 14.7589 67.0588 14.6809 67.0534 14.6216C67.048 14.5624 67.0319 14.4951 67.0049 14.4198C66.9834 14.339 66.943 14.2798 66.8838 14.2421C66.8246 14.2044 66.7492 14.1856 66.6577 14.1856C66.4693 14.1856 66.3266 14.2636 66.2297 14.4198C66.149 14.5382 66.1086 14.7482 66.1086 15.0496V17.4803H65.6564V13.8706H66.1086V14.1614C66.3132 13.9299 66.5473 13.8141 66.8111 13.8141C67.0857 13.8141 67.2714 13.9056 67.3683 14.0887C67.4652 14.2663 67.5137 14.5059 67.5137 14.8074V17.4803ZM70.1872 13.8706V17.876C70.1872 18.5812 69.8723 18.9338 69.2424 18.9338C68.9356 18.9338 68.7014 18.845 68.5399 18.6673C68.3838 18.4897 68.3057 18.2447 68.3057 17.9325C68.3057 17.8679 68.3084 17.8221 68.3138 17.7952H68.7741C68.7741 18.0213 68.8037 18.1963 68.8629 18.3201C68.9275 18.4439 69.0621 18.5058 69.2666 18.5058C69.3743 18.5058 69.4605 18.487 69.5251 18.4493C69.5897 18.4116 69.6354 18.3551 69.6623 18.2797C69.6893 18.2044 69.7054 18.1317 69.7108 18.0617C69.7216 17.9971 69.7269 17.911 69.7269 17.8033V17.2219C69.5708 17.3941 69.3797 17.4803 69.1536 17.4803C69.0082 17.4803 68.879 17.4507 68.766 17.3915C68.6583 17.3322 68.5722 17.2461 68.5076 17.133C68.443 17.0146 68.3891 16.9016 68.3461 16.7939C68.3084 16.6808 68.2815 16.5409 68.2653 16.374C68.2492 16.2017 68.2384 16.0671 68.233 15.9702C68.233 15.8733 68.233 15.7495 68.233 15.5988C68.233 14.409 68.5318 13.8141 69.1294 13.8141C69.3662 13.8141 69.5654 13.9164 69.7269 14.121V13.8706H70.1872ZM69.7754 15.4615C69.7754 14.6109 69.5923 14.1856 69.2263 14.1856C69.0109 14.1856 68.8683 14.3282 68.7983 14.6136C68.7337 14.8989 68.7014 15.2838 68.7014 15.7683C68.7014 16.662 68.8898 17.1088 69.2666 17.1088C69.5466 17.1088 69.7081 16.8504 69.7512 16.3336C69.7673 16.1344 69.7754 15.8437 69.7754 15.4615ZM74.2447 14.0483V14.6055C74.0401 14.3579 73.8328 14.234 73.6229 14.234C73.4937 14.234 73.386 14.2798 73.2999 14.3713C73.2191 14.4628 73.1787 14.5759 73.1787 14.7105C73.1787 14.8397 73.2191 14.9608 73.2999 15.0739C73.3806 15.1815 73.4775 15.2811 73.5906 15.3726C73.7036 15.4642 73.8167 15.5611 73.9297 15.6634C74.0428 15.7603 74.1397 15.8841 74.2204 16.0348C74.3012 16.1802 74.3416 16.3417 74.3416 16.5193C74.3416 16.8047 74.25 17.0469 74.067 17.2461C73.884 17.4399 73.6525 17.5368 73.3725 17.5368C73.1357 17.5368 72.9122 17.4534 72.7023 17.2865V16.7535C72.9284 16.9904 73.141 17.1088 73.3402 17.1088C73.4964 17.1088 73.6229 17.055 73.7198 16.9473C73.8167 16.8396 73.8651 16.7078 73.8651 16.5516C73.8651 16.4224 73.8247 16.2986 73.744 16.1802C73.6632 16.0563 73.5663 15.946 73.4533 15.8491C73.3402 15.7522 73.2272 15.6526 73.1141 15.5503C73.0011 15.4426 72.9042 15.3188 72.8234 15.1788C72.7427 15.0389 72.7023 14.8881 72.7023 14.7266C72.7023 14.4628 72.7857 14.2448 72.9526 14.0725C73.1195 13.9003 73.3349 13.8141 73.5986 13.8141C73.814 13.8141 74.0293 13.8922 74.2447 14.0483ZM76.086 14.2906H75.4804V17.4803H75.0282V14.2906H74.6405V13.8706H75.0282V12.8451H75.4804V13.8706H76.086V14.2906ZM78.3731 13.8706V16.6001C78.3731 16.8908 78.2869 17.1196 78.1147 17.2865C77.9478 17.4534 77.7217 17.5368 77.4363 17.5368C77.151 17.5368 76.9222 17.4534 76.7499 17.2865C76.5831 17.1196 76.4996 16.8908 76.4996 16.6001V13.8706H76.9518V16.3174C76.9518 16.4359 76.9545 16.5328 76.9599 16.6082C76.9707 16.6781 76.9895 16.7589 77.0164 16.8504C77.0487 16.9366 77.0999 17.0012 77.1699 17.0442C77.2452 17.0873 77.3394 17.1088 77.4525 17.1088C77.5655 17.1088 77.6544 17.0846 77.719 17.0361C77.789 16.9877 77.8374 16.915 77.8643 16.8181C77.8913 16.7158 77.9074 16.6297 77.9128 16.5597C77.9182 16.4897 77.9209 16.3928 77.9209 16.269V13.8706H78.3731ZM80.9655 17.4803H80.5133V17.1896C80.341 17.4211 80.1337 17.5368 79.8915 17.5368C79.7569 17.5368 79.6385 17.5099 79.5362 17.4561C79.4393 17.3968 79.3612 17.3107 79.302 17.1977C79.2428 17.0846 79.1943 16.9742 79.1566 16.8666C79.1189 16.7535 79.092 16.6162 79.0759 16.4547C79.0597 16.2932 79.049 16.164 79.0436 16.0671C79.0436 15.9648 79.0436 15.8437 79.0436 15.7037C79.0436 15.5368 79.0436 15.4076 79.0436 15.3161C79.049 15.2192 79.0597 15.0846 79.0759 14.9124C79.092 14.7347 79.1189 14.5947 79.1566 14.4924C79.1943 14.3848 79.2428 14.2744 79.302 14.1614C79.3666 14.0429 79.4527 13.9568 79.5604 13.9029C79.6681 13.8437 79.7946 13.8141 79.9399 13.8141C80.1607 13.8141 80.3518 13.9137 80.5133 14.1129V11.5934H80.9655V17.4803ZM80.5536 15.6795C80.5536 15.2058 80.5213 14.837 80.4567 14.5732C80.3921 14.3094 80.2549 14.1775 80.0449 14.1775C79.695 14.1775 79.52 14.6055 79.52 15.4615C79.52 15.8491 79.5281 16.1398 79.5442 16.3336C79.555 16.4413 79.5658 16.5328 79.5765 16.6082C79.5873 16.6781 79.6088 16.7643 79.6411 16.8666C79.6734 16.9635 79.7219 17.0388 79.7865 17.0927C79.8565 17.1411 79.9399 17.1654 80.0368 17.1654C80.1607 17.1654 80.2602 17.125 80.3356 17.0442C80.481 16.8989 80.5536 16.444 80.5536 15.6795ZM82.2276 17.4803H81.7673V13.8706H82.2276V17.4803ZM82.2356 12.4979C82.3002 12.5678 82.3325 12.6486 82.3325 12.7401C82.3325 12.8316 82.3002 12.9097 82.2356 12.9743C82.171 13.0389 82.093 13.0712 82.0015 13.0712C81.9099 13.0712 81.8292 13.0389 81.7592 12.9743C81.6946 12.9097 81.6623 12.8316 81.6623 12.7401C81.6623 12.6432 81.6946 12.5625 81.7592 12.4979C81.8238 12.4279 81.9045 12.3929 82.0015 12.3929C82.093 12.3929 82.171 12.4279 82.2356 12.4979ZM84.9592 15.6957C84.9592 16.9231 84.6227 17.5368 83.9498 17.5368C83.7291 17.5368 83.5433 17.4749 83.3926 17.3511C83.2419 17.2273 83.1315 17.0631 83.0615 16.8585C82.9969 16.6539 82.9512 16.4574 82.9242 16.269C82.9027 16.0806 82.8919 15.8814 82.8919 15.6714C82.8919 15.5099 82.8973 15.3565 82.9081 15.2111C82.9242 15.0604 82.9538 14.8962 82.9969 14.7185C83.04 14.5409 83.0992 14.3902 83.1746 14.2663C83.2499 14.1371 83.3522 14.0295 83.4814 13.9433C83.616 13.8572 83.7721 13.8141 83.9498 13.8141C84.6227 13.8141 84.9592 14.4413 84.9592 15.6957ZM83.9417 17.1088C84.3078 17.1088 84.4908 16.6297 84.4908 15.6714C84.4908 14.7132 84.3078 14.234 83.9417 14.234C83.5595 14.234 83.3684 14.7266 83.3684 15.7118C83.3684 16.6432 83.5595 17.1088 83.9417 17.1088Z" fill="#222222"/>
<path d="M35.4606 17.7303C35.4606 14.2236 34.4208 10.7956 32.4725 7.87988C30.5243 4.96414 27.7552 2.69161 24.5154 1.34964C21.2756 0.00767427 17.7106 -0.343445 14.2713 0.340683C10.832 1.02481 7.67272 2.71346 5.19309 5.19309C2.71346 7.67272 1.02481 10.832 0.340683 14.2713C-0.343445 17.7106 0.00767432 21.2756 1.34964 24.5154C2.69161 27.7552 4.96414 30.5243 7.87988 32.4725C10.7956 34.4208 14.2236 35.4606 17.7303 35.4606V25.159C16.2611 25.159 14.8248 24.7234 13.6031 23.9071C12.3815 23.0908 11.4293 21.9306 10.8671 20.5732C10.3048 19.2157 10.1577 17.7221 10.4443 16.281C10.731 14.84 11.4385 13.5163 12.4774 12.4774C13.5163 11.4385 14.84 10.731 16.281 10.4443C17.7221 10.1577 19.2157 10.3048 20.5732 10.8671C21.9306 11.4293 23.0908 12.3815 23.9071 13.6031C24.7234 14.8248 25.159 16.2611 25.159 17.7303H35.4606Z" fill="white"/>
<path d="M20.161 21.6862H21.9868L22.9405 28.1988L23.0949 29.1616C23.1676 29.6824 23.2221 30.1577 23.2584 30.5877L23.3583 31.7776C23.3644 31.8078 23.3704 31.8623 23.3765 31.9411C23.3825 32.0198 23.3916 32.1197 23.4037 32.2408L23.4491 31.7866C23.5218 30.9934 23.5975 30.2637 23.6762 29.5976C23.761 28.9315 23.8518 28.3169 23.9487 27.7537L24.9569 21.6862H26.4102L27.3549 27.5811C27.4942 28.4531 27.6092 29.2615 27.7001 30.0064C27.7969 30.7512 27.8757 31.4627 27.9362 32.1409C27.9968 31.4264 28.0634 30.736 28.136 30.0699C28.2148 29.4038 28.2965 28.7498 28.3813 28.108L28.5175 27.1724L29.3259 21.6862H31.1335L28.6538 35.7106H27.1823L26.1923 29.6521C26.1862 29.6279 26.1711 29.528 26.1468 29.3524C26.1226 29.1768 26.0863 28.9255 26.0378 28.5985L25.8471 27.1997C25.835 27.0907 25.8138 26.9272 25.7835 26.7092C25.7593 26.4912 25.732 26.2156 25.7018 25.8826L25.6563 25.3013C25.6442 25.4406 25.6321 25.5617 25.62 25.6646C25.6079 25.7675 25.5988 25.8523 25.5928 25.9189C25.5625 26.3186 25.5352 26.6304 25.511 26.8545C25.4928 27.0725 25.4807 27.2057 25.4747 27.2542L25.2839 28.5985C25.2415 28.9073 25.2082 29.1495 25.184 29.3251C25.1598 29.5007 25.1416 29.6097 25.1295 29.6521L24.1031 35.7106H22.5862L20.161 21.6862ZM32.2416 21.6862H37.2646V23.2848H34.1309V27.7265H36.9104V29.3251H34.1309V34.1119H37.2646V35.7106H32.2416V21.6862ZM38.9995 21.6862H41.5609C43.5653 21.6862 44.5675 22.9306 44.5675 25.4194C44.5675 26.3701 44.4373 27.0755 44.1769 27.5357C43.9165 27.9959 43.4563 28.3441 42.7963 28.5803C43.5532 28.8831 44.0709 29.2706 44.3495 29.7429C44.6341 30.2092 44.7764 30.9116 44.7764 31.8502C44.7764 34.4238 43.6743 35.7106 41.4701 35.7106H38.9995V21.6862ZM40.7798 27.8627C41.5125 27.8627 42.0212 27.6932 42.3058 27.3541C42.5904 26.9968 42.7327 26.3701 42.7327 25.4739C42.7327 23.96 42.1877 23.2031 41.0977 23.2031H40.9524H40.8706C40.8222 23.2031 40.7919 23.2061 40.7798 23.2122V27.8627ZM40.7798 34.0938C41.5549 34.0938 42.0908 33.9272 42.3875 33.5942C42.6842 33.2611 42.8326 32.6586 42.8326 31.7866C42.8326 30.8904 42.6782 30.2637 42.3693 29.9064C42.0666 29.5431 41.5367 29.3614 40.7798 29.3614V34.0938ZM51.3435 21.9768V23.8207C50.7682 23.409 50.2505 23.2031 49.7903 23.2031C49.2937 23.2031 48.888 23.3787 48.5731 23.7299C48.2583 24.0629 48.1008 24.508 48.1008 25.0651C48.1008 25.5556 48.2128 25.9765 48.4369 26.3277C48.5519 26.5154 48.7397 26.7576 49 27.0543C49.2665 27.351 49.6086 27.7083 50.0264 28.1261C50.7955 28.9073 51.3193 29.5825 51.5978 30.1517C51.8764 30.7027 52.0157 31.3779 52.0157 32.1772C52.0157 33.2611 51.7099 34.1543 51.0983 34.8568C50.4867 35.541 49.7025 35.8832 48.7457 35.8832C47.9403 35.8832 47.2531 35.6621 46.6838 35.2201V33.349C47.356 33.8394 47.9676 34.0847 48.5186 34.0847C49.0334 34.0847 49.436 33.9151 49.7267 33.576C50.0174 33.2309 50.1627 32.7646 50.1627 32.1772C50.1627 31.6686 50.0507 31.2114 49.8266 30.8057C49.7116 30.6119 49.5511 30.3909 49.3452 30.1426C49.1393 29.8883 48.882 29.6067 48.5731 29.2979C48.0948 28.8255 47.6981 28.4077 47.3832 28.0444C47.0684 27.6811 46.8352 27.3632 46.6838 27.0907C46.3932 26.5578 46.2479 25.8856 46.2479 25.0742C46.2479 23.9782 46.5325 23.1092 47.1017 22.4673C47.6769 21.8194 48.449 21.4954 49.4179 21.4954C50.09 21.4954 50.7319 21.6559 51.3435 21.9768ZM59.1096 21.9133V23.6118C58.6252 23.3756 58.2194 23.2576 57.8925 23.2576C57.4444 23.2576 57.0598 23.3696 56.7389 23.5936C56.418 23.8116 56.1515 24.1507 55.9396 24.611C55.7337 25.0712 55.5793 25.6555 55.4763 26.364C55.3794 27.0664 55.331 27.8991 55.331 28.8619C55.331 32.3256 56.2181 34.0574 57.9924 34.0574C58.3012 34.0574 58.6736 33.9606 59.1096 33.7668V35.5017C58.6554 35.756 58.1468 35.8832 57.5836 35.8832C54.7436 35.8832 53.3236 33.5639 53.3236 28.9255C53.3236 26.4185 53.6688 24.5534 54.3591 23.3302C55.0555 22.107 56.1182 21.4954 57.5473 21.4954C58.0741 21.4954 58.5949 21.6347 59.1096 21.9133ZM60.7082 21.6862H63.197C64.2264 21.6862 64.9925 21.9314 65.4951 22.4219C66.1309 23.0577 66.4488 24.0296 66.4488 25.3376C66.4488 26.3428 66.2792 27.1512 65.9401 27.7628C65.6071 28.3684 65.1287 28.7438 64.505 28.8891L67.0846 35.7106H65.1681L62.5975 28.8437V35.7106H60.7082V21.6862ZM62.5975 27.8991C63.3302 27.8991 63.848 27.7295 64.1507 27.3904C64.4535 27.0513 64.6049 26.4791 64.6049 25.6737C64.6049 25.2377 64.5716 24.8653 64.505 24.5565C64.4444 24.2476 64.3445 23.9963 64.2052 23.8026C64.072 23.6088 63.8964 23.4665 63.6784 23.3756C63.4665 23.2848 63.2122 23.2394 62.9154 23.2394H62.5975V27.8991ZM68.5561 21.6862H70.4454V35.7106H68.5561V21.6862ZM72.6072 21.6862H75.0959C76.2949 21.6862 77.1669 21.989 77.7119 22.5945C78.2569 23.2061 78.5294 24.175 78.5294 25.5011C78.5294 27.3662 77.9814 28.5712 76.8853 29.1162C76.3343 29.3645 75.538 29.4886 74.4965 29.4886V35.7106H72.6072V21.6862ZM74.4965 27.8718C75.2776 27.8718 75.8165 27.7144 76.1133 27.3995C76.416 27.0785 76.5674 26.5093 76.5674 25.6919C76.5674 24.8562 76.4221 24.2446 76.1314 23.8571C75.8408 23.4695 75.3836 23.2757 74.7599 23.2757H74.4965V27.8718ZM78.8655 21.6862H85.0147V23.3393H82.8984V35.7106H81.0454V23.3393H78.8655V21.6862ZM86.4317 33.6033C86.7284 33.6033 86.9858 33.7153 87.2038 33.9394C87.4218 34.1574 87.5308 34.4208 87.5308 34.7296C87.5308 35.0384 87.4218 35.3018 87.2038 35.5198C86.9737 35.7318 86.7103 35.8377 86.4136 35.8377C86.2561 35.8377 86.1078 35.8075 85.9685 35.7469C85.8353 35.6924 85.7172 35.6167 85.6142 35.5198C85.5113 35.4169 85.4295 35.2988 85.369 35.1656C85.3145 35.0263 85.2872 34.8779 85.2872 34.7205C85.2872 34.4117 85.3962 34.1483 85.6142 33.9303C85.8383 33.7123 86.1108 33.6033 86.4317 33.6033Z" fill="#222222"/>
</svg>
