<svg width="89" height="40" viewBox="0 0 89 40" fill="none" xmlns="http://www.w3.org/2000/svg">
<path d="M39.2746 17.4805H38.774V12.0943H39.2746V17.4805ZM41.8337 12.5546H41.0261V17.4805H40.5255V12.5546H39.718V12.0943H41.8337V12.5546ZM46.8488 15.93L47.1799 16.2692C47.0453 16.4522 46.8865 16.638 46.7034 16.8264L47.0345 17.4805H46.5096L46.3481 17.1817C46.0736 17.4293 45.7775 17.5531 45.4598 17.5531C45.0776 17.5531 44.7654 17.4078 44.5231 17.1171C44.2809 16.821 44.1597 16.4791 44.1597 16.0915C44.1597 15.7793 44.227 15.5047 44.3616 15.2678C44.4962 15.0256 44.6954 14.7833 44.9592 14.5411C44.6308 13.9597 44.4666 13.4751 44.4666 13.0875C44.4666 12.7861 44.5689 12.533 44.7734 12.3285C44.9834 12.1239 45.2364 12.0216 45.5325 12.0216C45.8125 12.0216 46.044 12.1185 46.227 12.3123C46.41 12.5061 46.5016 12.743 46.5016 13.0229C46.5016 13.2544 46.4477 13.4778 46.34 13.6932C46.2324 13.9085 46.122 14.0754 46.009 14.1938C45.8959 14.3123 45.7425 14.4549 45.5487 14.6218L46.4773 16.3822C46.6173 16.2315 46.7411 16.0808 46.8488 15.93ZM46.017 13.0068C46.017 12.856 45.9686 12.7268 45.8717 12.6192C45.7748 12.5115 45.6537 12.4577 45.5083 12.4577C45.3414 12.4577 45.2014 12.5196 45.0884 12.6434C44.9807 12.7618 44.9269 12.9045 44.9269 13.0714C44.9269 13.2221 44.9484 13.3755 44.9915 13.5317C45.0399 13.6878 45.0857 13.8089 45.1288 13.8951C45.1718 13.9758 45.2364 14.0916 45.3226 14.2423C45.7855 13.8654 46.017 13.4536 46.017 13.0068ZM46.122 16.7537L45.1772 14.9771C44.8111 15.3648 44.6281 15.7389 44.6281 16.0996C44.6281 16.3419 44.7035 16.5653 44.8542 16.7698C45.0049 16.969 45.1987 17.0686 45.4356 17.0686C45.651 17.0686 45.8798 16.9637 46.122 16.7537ZM52.9031 14.7107V17.4805H52.4509V14.8076C52.4509 14.393 52.3109 14.1858 52.031 14.1858C51.9287 14.1858 51.8425 14.21 51.7726 14.2584C51.7026 14.3015 51.6487 14.3553 51.611 14.4199C51.5734 14.4792 51.5438 14.5599 51.5222 14.6622C51.5061 14.7591 51.4953 14.8426 51.4899 14.9125C51.4845 14.9825 51.4818 15.0687 51.4818 15.1709V17.4805H51.0216V14.8156C51.0216 14.3957 50.895 14.1858 50.642 14.1858C50.5074 14.1858 50.3971 14.2181 50.3109 14.2827C50.2302 14.3473 50.171 14.4415 50.1333 14.5653C50.101 14.6891 50.0794 14.7995 50.0687 14.8964C50.0633 14.9879 50.0606 15.1037 50.0606 15.2436V17.4805H49.6084V13.8708H50.0606V14.1696C50.2867 13.9327 50.5209 13.8143 50.7631 13.8143C51.0592 13.8143 51.28 13.9543 51.4253 14.2342C51.6353 13.9543 51.8829 13.8143 52.1682 13.8143C52.4428 13.8143 52.6339 13.8924 52.7416 14.0485C52.8493 14.2046 52.9031 14.4253 52.9031 14.7107ZM55.5422 17.4805H55.0819V17.1898C54.9096 17.4213 54.705 17.537 54.4682 17.537C54.312 17.537 54.1775 17.4939 54.0644 17.4078C53.9514 17.3163 53.8652 17.214 53.806 17.1009C53.7522 16.9825 53.7091 16.8318 53.6768 16.6487C53.6499 16.4603 53.6337 16.3069 53.6283 16.1884C53.623 16.0646 53.6203 15.9166 53.6203 15.7443C53.6203 15.5505 53.623 15.389 53.6283 15.2598C53.6337 15.1252 53.6526 14.9583 53.6849 14.7591C53.7172 14.5599 53.7629 14.3984 53.8222 14.2746C53.8814 14.1508 53.9675 14.0431 54.0806 13.9516C54.199 13.8601 54.3417 13.8143 54.5085 13.8143C54.7293 13.8143 54.9204 13.9139 55.0819 14.1131V13.8708H55.5422V17.4805ZM55.1303 15.6555C55.1303 15.4401 55.125 15.2598 55.1142 15.1144C55.1034 14.9637 55.0819 14.8103 55.0496 14.6541C55.0227 14.498 54.9715 14.3796 54.8962 14.2988C54.8262 14.2181 54.7347 14.1777 54.6216 14.1777C54.2663 14.1777 54.0886 14.6057 54.0886 15.4617C54.0886 15.8493 54.0967 16.14 54.1129 16.3338C54.1236 16.4522 54.1344 16.5437 54.1452 16.6083C54.1613 16.6729 54.1855 16.7564 54.2178 16.8587C54.2501 16.961 54.2986 17.039 54.3632 17.0929C54.4332 17.1413 54.5166 17.1655 54.6135 17.1655C54.732 17.1655 54.8289 17.1252 54.9042 17.0444C55.055 16.8937 55.1303 16.4307 55.1303 15.6555ZM57.4168 13.8143V14.3392C57.2984 14.3392 57.1988 14.3607 57.1181 14.4038C57.0373 14.4415 56.9754 14.4872 56.9323 14.5411C56.8946 14.5895 56.865 14.6622 56.8435 14.7591C56.822 14.856 56.8085 14.9395 56.8031 15.0094C56.8031 15.074 56.8031 15.1683 56.8031 15.2921V17.4805H56.3509V13.8708H56.8031V14.3392C56.9539 14 57.1584 13.8251 57.4168 13.8143ZM60.0761 17.4805H59.5028L58.3803 15.7524V17.4805H57.9281V11.5936H58.3803V15.3405L59.2847 13.8708H59.7935L58.7599 15.4859L60.0761 17.4805ZM61.6271 16.253H62.0874C62.0497 17.109 61.7455 17.537 61.1749 17.537C60.475 17.537 60.1251 16.9206 60.1251 15.6878C60.1251 15.4886 60.1385 15.2975 60.1655 15.1144C60.1924 14.926 60.2381 14.7268 60.3027 14.5168C60.3673 14.3069 60.4723 14.1373 60.6177 14.0081C60.763 13.8789 60.938 13.8143 61.1426 13.8143C61.3417 13.8143 61.5113 13.8735 61.6513 13.992C61.7913 14.105 61.8909 14.2584 61.9501 14.4522C62.0147 14.6407 62.0578 14.8237 62.0793 15.0014C62.1062 15.1736 62.1197 15.354 62.1197 15.5424C62.1197 15.5639 62.117 15.6016 62.1116 15.6555C62.1116 15.7093 62.1116 15.747 62.1116 15.7685H60.5854V15.8493C60.5854 15.9677 60.5907 16.0861 60.6015 16.2046C60.6177 16.323 60.6419 16.4576 60.6742 16.6083C60.7119 16.7591 60.7711 16.8802 60.8518 16.9717C60.938 17.0632 61.0403 17.109 61.1587 17.109C61.4548 17.109 61.6109 16.8237 61.6271 16.253ZM60.5934 15.3809H61.6675C61.6298 14.6164 61.4575 14.2342 61.1506 14.2342C60.8169 14.2342 60.6311 14.6164 60.5934 15.3809ZM63.9889 14.2907H63.3833V17.4805H62.931V14.2907H62.5434V13.8708H62.931V12.8453H63.3833V13.8708H63.9889V14.2907ZM64.8547 17.4805H64.3944V13.8708H64.8547V17.4805ZM64.8628 12.498C64.9274 12.568 64.9597 12.6488 64.9597 12.7403C64.9597 12.8318 64.9274 12.9099 64.8628 12.9745C64.7982 13.0391 64.7201 13.0714 64.6286 13.0714C64.5371 13.0714 64.4563 13.0391 64.3864 12.9745C64.3217 12.9099 64.2894 12.8318 64.2894 12.7403C64.2894 12.6434 64.3217 12.5626 64.3864 12.498C64.451 12.428 64.5317 12.3931 64.6286 12.3931C64.7201 12.3931 64.7982 12.428 64.8628 12.498ZM67.5137 17.4805H67.0615V14.856C67.0615 14.7591 67.0588 14.681 67.0534 14.6218C67.048 14.5626 67.0319 14.4953 67.0049 14.4199C66.9834 14.3392 66.943 14.28 66.8838 14.2423C66.8246 14.2046 66.7492 14.1858 66.6577 14.1858C66.4693 14.1858 66.3266 14.2638 66.2297 14.4199C66.149 14.5384 66.1086 14.7483 66.1086 15.0498V17.4805H65.6564V13.8708H66.1086V14.1615C66.3132 13.93 66.5473 13.8143 66.8111 13.8143C67.0857 13.8143 67.2714 13.9058 67.3683 14.0889C67.4652 14.2665 67.5137 14.5061 67.5137 14.8076V17.4805ZM70.1872 13.8708V17.8762C70.1872 18.5814 69.8723 18.934 69.2424 18.934C68.9356 18.934 68.7014 18.8452 68.5399 18.6675C68.3838 18.4899 68.3057 18.2449 68.3057 17.9327C68.3057 17.8681 68.3084 17.8223 68.3138 17.7954H68.7741C68.7741 18.0215 68.8037 18.1965 68.8629 18.3203C68.9275 18.4441 69.0621 18.506 69.2666 18.506C69.3743 18.506 69.4605 18.4872 69.5251 18.4495C69.5897 18.4118 69.6354 18.3553 69.6623 18.2799C69.6893 18.2046 69.7054 18.1319 69.7108 18.0619C69.7216 17.9973 69.7269 17.9111 69.7269 17.8035V17.2221C69.5708 17.3943 69.3797 17.4805 69.1536 17.4805C69.0082 17.4805 68.879 17.4509 68.766 17.3916C68.6583 17.3324 68.5722 17.2463 68.5076 17.1332C68.443 17.0148 68.3891 16.9017 68.3461 16.7941C68.3084 16.681 68.2815 16.541 68.2653 16.3742C68.2492 16.2019 68.2384 16.0673 68.233 15.9704C68.233 15.8735 68.233 15.7497 68.233 15.5989C68.233 14.4092 68.5318 13.8143 69.1294 13.8143C69.3662 13.8143 69.5654 13.9166 69.7269 14.1212V13.8708H70.1872ZM69.7754 15.4617C69.7754 14.6111 69.5923 14.1858 69.2263 14.1858C69.0109 14.1858 68.8683 14.3284 68.7983 14.6138C68.7337 14.8991 68.7014 15.284 68.7014 15.7685C68.7014 16.6622 68.8898 17.109 69.2666 17.109C69.5466 17.109 69.7081 16.8506 69.7512 16.3338C69.7673 16.1346 69.7754 15.8439 69.7754 15.4617ZM74.2447 14.0485V14.6057C74.0401 14.358 73.8328 14.2342 73.6229 14.2342C73.4937 14.2342 73.386 14.28 73.2999 14.3715C73.2191 14.463 73.1787 14.5761 73.1787 14.7107C73.1787 14.8399 73.2191 14.961 73.2999 15.074C73.3806 15.1817 73.4775 15.2813 73.5906 15.3728C73.7036 15.4643 73.8167 15.5612 73.9297 15.6635C74.0428 15.7604 74.1397 15.8843 74.2204 16.035C74.3012 16.1804 74.3416 16.3419 74.3416 16.5195C74.3416 16.8048 74.25 17.0471 74.067 17.2463C73.884 17.4401 73.6525 17.537 73.3725 17.537C73.1357 17.537 72.9122 17.4536 72.7023 17.2867V16.7537C72.9284 16.9906 73.141 17.109 73.3402 17.109C73.4964 17.109 73.6229 17.0552 73.7198 16.9475C73.8167 16.8398 73.8651 16.7079 73.8651 16.5518C73.8651 16.4226 73.8247 16.2988 73.744 16.1804C73.6632 16.0565 73.5663 15.9462 73.4533 15.8493C73.3402 15.7524 73.2272 15.6528 73.1141 15.5505C73.0011 15.4428 72.9042 15.319 72.8234 15.179C72.7427 15.039 72.7023 14.8883 72.7023 14.7268C72.7023 14.463 72.7857 14.245 72.9526 14.0727C73.1195 13.9004 73.3349 13.8143 73.5986 13.8143C73.814 13.8143 74.0293 13.8924 74.2447 14.0485ZM76.086 14.2907H75.4804V17.4805H75.0282V14.2907H74.6405V13.8708H75.0282V12.8453H75.4804V13.8708H76.086V14.2907ZM78.3731 13.8708V16.6003C78.3731 16.891 78.2869 17.1198 78.1147 17.2867C77.9478 17.4536 77.7217 17.537 77.4363 17.537C77.151 17.537 76.9222 17.4536 76.7499 17.2867C76.5831 17.1198 76.4996 16.891 76.4996 16.6003V13.8708H76.9518V16.3176C76.9518 16.4361 76.9545 16.533 76.9599 16.6083C76.9707 16.6783 76.9895 16.7591 77.0164 16.8506C77.0487 16.9367 77.0999 17.0013 77.1699 17.0444C77.2452 17.0875 77.3394 17.109 77.4525 17.109C77.5655 17.109 77.6544 17.0848 77.719 17.0363C77.789 16.9879 77.8374 16.9152 77.8643 16.8183C77.8913 16.716 77.9074 16.6299 77.9128 16.5599C77.9182 16.4899 77.9209 16.393 77.9209 16.2692V13.8708H78.3731ZM80.9655 17.4805H80.5133V17.1898C80.341 17.4213 80.1337 17.537 79.8915 17.537C79.7569 17.537 79.6385 17.5101 79.5362 17.4562C79.4393 17.397 79.3612 17.3109 79.302 17.1978C79.2428 17.0848 79.1943 16.9744 79.1566 16.8667C79.1189 16.7537 79.092 16.6164 79.0759 16.4549C79.0597 16.2934 79.049 16.1642 79.0436 16.0673C79.0436 15.965 79.0436 15.8439 79.0436 15.7039C79.0436 15.537 79.0436 15.4078 79.0436 15.3163C79.049 15.2194 79.0597 15.0848 79.0759 14.9125C79.092 14.7349 79.1189 14.5949 79.1566 14.4926C79.1943 14.385 79.2428 14.2746 79.302 14.1615C79.3666 14.0431 79.4527 13.957 79.5604 13.9031C79.6681 13.8439 79.7946 13.8143 79.9399 13.8143C80.1607 13.8143 80.3518 13.9139 80.5133 14.1131V11.5936H80.9655V17.4805ZM80.5536 15.6797C80.5536 15.2059 80.5213 14.8372 80.4567 14.5734C80.3921 14.3096 80.2549 14.1777 80.0449 14.1777C79.695 14.1777 79.52 14.6057 79.52 15.4617C79.52 15.8493 79.5281 16.14 79.5442 16.3338C79.555 16.4415 79.5658 16.533 79.5765 16.6083C79.5873 16.6783 79.6088 16.7645 79.6411 16.8667C79.6734 16.9637 79.7219 17.039 79.7865 17.0929C79.8565 17.1413 79.9399 17.1655 80.0368 17.1655C80.1607 17.1655 80.2602 17.1252 80.3356 17.0444C80.481 16.8991 80.5536 16.4441 80.5536 15.6797ZM82.2276 17.4805H81.7673V13.8708H82.2276V17.4805ZM82.2356 12.498C82.3002 12.568 82.3325 12.6488 82.3325 12.7403C82.3325 12.8318 82.3002 12.9099 82.2356 12.9745C82.171 13.0391 82.093 13.0714 82.0015 13.0714C81.9099 13.0714 81.8292 13.0391 81.7592 12.9745C81.6946 12.9099 81.6623 12.8318 81.6623 12.7403C81.6623 12.6434 81.6946 12.5626 81.7592 12.498C81.8238 12.428 81.9045 12.3931 82.0015 12.3931C82.093 12.3931 82.171 12.428 82.2356 12.498ZM84.9592 15.6958C84.9592 16.9233 84.6227 17.537 83.9498 17.537C83.7291 17.537 83.5433 17.4751 83.3926 17.3513C83.2419 17.2274 83.1315 17.0632 83.0615 16.8587C82.9969 16.6541 82.9512 16.4576 82.9242 16.2692C82.9027 16.0808 82.8919 15.8816 82.8919 15.6716C82.8919 15.5101 82.8973 15.3567 82.9081 15.2113C82.9242 15.0606 82.9538 14.8964 82.9969 14.7187C83.04 14.5411 83.0992 14.3903 83.1746 14.2665C83.2499 14.1373 83.3522 14.0296 83.4814 13.9435C83.616 13.8574 83.7721 13.8143 83.9498 13.8143C84.6227 13.8143 84.9592 14.4415 84.9592 15.6958ZM83.9417 17.109C84.3078 17.109 84.4908 16.6299 84.4908 15.6716C84.4908 14.7133 84.3078 14.2342 83.9417 14.2342C83.5595 14.2342 83.3684 14.7268 83.3684 15.712C83.3684 16.6433 83.5595 17.109 83.9417 17.109Z" fill="#151515"/>
<path d="M35.4606 17.7303C35.4606 14.2236 34.4208 10.7956 32.4725 7.87988C30.5243 4.96414 27.7552 2.69161 24.5154 1.34964C21.2756 0.00767427 17.7106 -0.343445 14.2713 0.340683C10.832 1.02481 7.67272 2.71346 5.19309 5.19309C2.71346 7.67272 1.02481 10.832 0.340683 14.2713C-0.343445 17.7106 0.00767432 21.2756 1.34964 24.5154C2.69161 27.7552 4.96414 30.5243 7.87988 32.4725C10.7956 34.4208 14.2236 35.4606 17.7303 35.4606V25.159C16.2611 25.159 14.8248 24.7234 13.6031 23.9071C12.3815 23.0908 11.4293 21.9306 10.8671 20.5732C10.3048 19.2157 10.1577 17.7221 10.4443 16.281C10.731 14.84 11.4385 13.5163 12.4774 12.4774C13.5163 11.4385 14.84 10.731 16.281 10.4443C17.7221 10.1577 19.2157 10.3048 20.5732 10.8671C21.9306 11.4293 23.0908 12.3815 23.9071 13.6031C24.7234 14.8248 25.159 16.2611 25.159 17.7303H35.4606Z" fill="white"/>
<path d="M20.161 21.6861H21.9868L22.9405 28.1987L23.0949 29.1615C23.1676 29.6823 23.2221 30.1576 23.2584 30.5876L23.3583 31.7774C23.3644 31.8077 23.3704 31.8622 23.3765 31.9409C23.3825 32.0197 23.3916 32.1196 23.4037 32.2407L23.4491 31.7865C23.5218 30.9933 23.5975 30.2636 23.6762 29.5975C23.761 28.9314 23.8518 28.3168 23.9487 27.7536L24.9569 21.6861H26.4102L27.3549 27.581C27.4942 28.453 27.6092 29.2614 27.7001 30.0062C27.7969 30.751 27.8757 31.4626 27.9362 32.1408C27.9968 31.4262 28.0634 30.7359 28.136 30.0698C28.2148 29.4037 28.2965 28.7497 28.3813 28.1079L28.5175 27.1723L29.3259 21.6861H31.1335L28.6538 35.7104H27.1823L26.1923 29.652C26.1862 29.6278 26.1711 29.5278 26.1468 29.3522C26.1226 29.1766 26.0863 28.9253 26.0378 28.5983L25.8471 27.1995C25.835 27.0905 25.8138 26.927 25.7835 26.709C25.7593 26.491 25.732 26.2155 25.7018 25.8825L25.6563 25.3012C25.6442 25.4404 25.6321 25.5615 25.62 25.6645C25.6079 25.7674 25.5988 25.8522 25.5928 25.9188C25.5625 26.3185 25.5352 26.6303 25.511 26.8544C25.4928 27.0724 25.4807 27.2056 25.4747 27.254L25.2839 28.5983C25.2415 28.9072 25.2082 29.1494 25.184 29.325C25.1598 29.5006 25.1416 29.6096 25.1295 29.652L24.1031 35.7104H22.5862L20.161 21.6861ZM32.2416 21.6861H37.2646V23.2847H34.1309V27.7264H36.9104V29.325H34.1309V34.1118H37.2646V35.7104H32.2416V21.6861ZM38.9995 21.6861H41.5609C43.5653 21.6861 44.5675 22.9305 44.5675 25.4192C44.5675 26.3699 44.4373 27.0754 44.1769 27.5356C43.9165 27.9958 43.4563 28.344 42.7963 28.5802C43.5532 28.8829 44.0709 29.2705 44.3495 29.7428C44.6341 30.2091 44.7764 30.9115 44.7764 31.8501C44.7764 34.4237 43.6743 35.7104 41.4701 35.7104H38.9995V21.6861ZM40.7798 27.8626C41.5125 27.8626 42.0212 27.6931 42.3058 27.3539C42.5904 26.9967 42.7327 26.3699 42.7327 25.4737C42.7327 23.9599 42.1877 23.2029 41.0977 23.2029H40.9524H40.8706C40.8222 23.2029 40.7919 23.206 40.7798 23.212V27.8626ZM40.7798 34.0936C41.5549 34.0936 42.0908 33.9271 42.3875 33.5941C42.6842 33.261 42.8326 32.6585 42.8326 31.7865C42.8326 30.8903 42.6782 30.2636 42.3693 29.9063C42.0666 29.543 41.5367 29.3613 40.7798 29.3613V34.0936ZM51.3435 21.9767V23.8206C50.7682 23.4088 50.2505 23.2029 49.7903 23.2029C49.2937 23.2029 48.888 23.3786 48.5731 23.7298C48.2583 24.0628 48.1008 24.5079 48.1008 25.065C48.1008 25.5555 48.2128 25.9763 48.4369 26.3276C48.5519 26.5153 48.7397 26.7575 49 27.0542C49.2665 27.3509 49.6086 27.7082 50.0264 28.126C50.7955 28.9072 51.3193 29.5823 51.5978 30.1516C51.8764 30.7026 52.0157 31.3778 52.0157 32.1771C52.0157 33.261 51.7099 34.1542 51.0983 34.8566C50.4867 35.5409 49.7025 35.883 48.7457 35.883C47.9403 35.883 47.2531 35.662 46.6838 35.22V33.3488C47.356 33.8393 47.9676 34.0846 48.5186 34.0846C49.0334 34.0846 49.436 33.915 49.7267 33.5759C50.0174 33.2307 50.1627 32.7645 50.1627 32.1771C50.1627 31.6684 50.0507 31.2113 49.8266 30.8055C49.7116 30.6118 49.5511 30.3907 49.3452 30.1425C49.1393 29.8881 48.882 29.6066 48.5731 29.2977C48.0948 28.8254 47.6981 28.4076 47.3832 28.0443C47.0684 27.6809 46.8352 27.363 46.6838 27.0905C46.3932 26.5577 46.2479 25.8855 46.2479 25.0741C46.2479 23.978 46.5325 23.1091 47.1017 22.4672C47.6769 21.8193 48.449 21.4953 49.4179 21.4953C50.09 21.4953 50.7319 21.6558 51.3435 21.9767ZM59.1096 21.9131V23.6117C58.6252 23.3755 58.2194 23.2574 57.8925 23.2574C57.4444 23.2574 57.0598 23.3695 56.7389 23.5935C56.418 23.8115 56.1515 24.1506 55.9396 24.6108C55.7337 25.071 55.5793 25.6554 55.4763 26.3639C55.3794 27.0663 55.331 27.8989 55.331 28.8618C55.331 32.3255 56.2181 34.0573 57.9924 34.0573C58.3012 34.0573 58.6736 33.9604 59.1096 33.7667V35.5015C58.6554 35.7559 58.1468 35.883 57.5836 35.883C54.7436 35.883 53.3236 33.5638 53.3236 28.9253C53.3236 26.4184 53.6688 24.5533 54.3591 23.3301C55.0555 22.1069 56.1182 21.4953 57.5473 21.4953C58.0741 21.4953 58.5949 21.6346 59.1096 21.9131ZM60.7082 21.6861H63.197C64.2264 21.6861 64.9925 21.9313 65.4951 22.4218C66.1309 23.0576 66.4488 24.0295 66.4488 25.3375C66.4488 26.3427 66.2792 27.1511 65.9401 27.7627C65.6071 28.3682 65.1287 28.7437 64.505 28.889L67.0846 35.7104H65.1681L62.5975 28.8436V35.7104H60.7082V21.6861ZM62.5975 27.8989C63.3302 27.8989 63.848 27.7294 64.1507 27.3903C64.4535 27.0512 64.6049 26.4789 64.6049 25.6736C64.6049 25.2376 64.5716 24.8652 64.505 24.5563C64.4444 24.2475 64.3445 23.9962 64.2052 23.8024C64.072 23.6087 63.8964 23.4664 63.6784 23.3755C63.4665 23.2847 63.2122 23.2393 62.9154 23.2393H62.5975V27.8989ZM68.5561 21.6861H70.4454V35.7104H68.5561V21.6861ZM72.6072 21.6861H75.0959C76.2949 21.6861 77.1669 21.9888 77.7119 22.5944C78.2569 23.206 78.5294 24.1748 78.5294 25.501C78.5294 27.3661 77.9814 28.5711 76.8853 29.1161C76.3343 29.3644 75.538 29.4885 74.4965 29.4885V35.7104H72.6072V21.6861ZM74.4965 27.8717C75.2776 27.8717 75.8165 27.7142 76.1133 27.3994C76.416 27.0784 76.5674 26.5092 76.5674 25.6917C76.5674 24.8561 76.4221 24.2445 76.1314 23.8569C75.8408 23.4694 75.3836 23.2756 74.7599 23.2756H74.4965V27.8717ZM78.8655 21.6861H85.0147V23.3392H82.8984V35.7104H81.0454V23.3392H78.8655V21.6861ZM86.4317 33.6032C86.7284 33.6032 86.9858 33.7152 87.2038 33.9392C87.4218 34.1572 87.5308 34.4206 87.5308 34.7295C87.5308 35.0383 87.4218 35.3017 87.2038 35.5197C86.9737 35.7316 86.7103 35.8376 86.4136 35.8376C86.2561 35.8376 86.1078 35.8073 85.9685 35.7468C85.8353 35.6923 85.7172 35.6166 85.6142 35.5197C85.5113 35.4168 85.4295 35.2987 85.369 35.1655C85.3145 35.0262 85.2872 34.8778 85.2872 34.7204C85.2872 34.4116 85.3962 34.1481 85.6142 33.9302C85.8383 33.7122 86.1108 33.6032 86.4317 33.6032Z" fill="#151515"/>
</svg>
