<svg width="31" height="32" viewBox="0 0 31 32" fill="none" xmlns="http://www.w3.org/2000/svg">
<path d="M-5.91278e-05 12.1109V3.59992C-0.00133514 3.193 0.0777702 2.78983 0.232714 2.41356C0.387657 2.0373 0.615389 1.69533 0.902838 1.40731C1.19029 1.11928 1.53179 0.89086 1.90775 0.735159C2.2837 0.579459 2.68671 0.499544 3.09363 0.500002H11.5997C12.1575 0.50115 12.6923 0.722182 13.0881 1.11514L30.0934 18.1156C30.6734 18.6974 30.999 19.4854 30.999 20.307C30.999 21.1285 30.6734 21.9165 30.0934 22.4984L21.9976 30.5941C21.416 31.1742 20.628 31.5 19.8066 31.5C18.9851 31.5 18.1971 31.1742 17.6155 30.5941L0.615082 13.5992C0.221996 13.2035 0.000940323 12.6686 -5.91278e-05 12.1109ZM6.64262 9.35691C7.08056 9.35691 7.50866 9.22705 7.87278 8.98375C8.23691 8.74045 8.52072 8.39463 8.6883 7.99003C8.85589 7.58544 8.89974 7.14023 8.81431 6.71071C8.72887 6.28119 8.51798 5.88665 8.20832 5.57699C7.89865 5.26732 7.50412 5.05644 7.0746 4.971C6.64508 4.88557 6.19987 4.92942 5.79527 5.09701C5.39068 5.2646 5.04486 5.5484 4.80156 5.91253C4.55826 6.27665 4.4284 6.70475 4.4284 7.14268C4.4284 7.72993 4.66168 8.29313 5.07693 8.70838C5.49218 9.12363 6.05537 9.35691 6.64262 9.35691Z" fill="url(#paint0_linear)"/>
<defs>
<linearGradient id="paint0_linear" x1="-20.7085" y1="43.9508" x2="39.9268" y2="22.8808" gradientUnits="userSpaceOnUse">
<stop stop-color="#455FFF"/>
<stop offset="1" stop-color="#8053FF"/>
</linearGradient>
</defs>
</svg>
