<svg width="21" height="21" viewBox="0 0 21 21" fill="none" xmlns="http://www.w3.org/2000/svg">
<path d="M11.0553 8.27889L7.98995 5.97739V15.0226L11.0553 12.7211L14.0201 10.5L11.0553 8.27889ZM11.0553 8.27889L7.98995 5.97739V15.0226L11.0553 12.7211L14.0201 10.5L11.0553 8.27889ZM11.0553 8.27889L7.98995 5.97739V15.0226L11.0553 12.7211L14.0201 10.5L11.0553 8.27889ZM8.99497 2.53015V0.5C6.97487 0.701005 5.13568 1.50503 3.64824 2.72111L5.07538 4.15829C6.21101 3.27175 7.56544 2.70914 8.99497 2.53015ZM3.65829 5.57538L2.22111 4.14824C0.96966 5.67245 0.19689 7.53269 0 9.49497H2.03015C2.21106 8.02764 2.79397 6.69095 3.65829 5.57538ZM2.03015 11.505H0C0.201005 13.5251 1.00503 15.3643 2.22111 16.8518L3.65829 15.4146C2.77021 14.2837 2.20731 12.932 2.03015 11.505ZM3.64824 18.2789C5.17344 19.5287 7.03316 20.3012 8.99497 20.5V18.4698C7.56544 18.2909 6.21101 17.7283 5.07538 16.8417L3.64824 18.2789ZM20.0503 10.5C20.0503 15.6859 16.1106 19.9673 11.0553 20.5V18.4698C14.995 17.9472 18.0402 14.5704 18.0402 10.5C18.0402 6.42965 14.995 3.05276 11.0553 2.53015V0.5C16.1106 1.03266 20.0503 5.31407 20.0503 10.5Z" fill="white"/>
</svg>
