<svg width="95" height="95" viewBox="0 0 95 95" fill="none" xmlns="http://www.w3.org/2000/svg">
<g clip-path="url(#clip0)">
<path d="M37.4818 66.5745C37.123 66.5745 36.7615 66.4511 36.4666 66.1999L26.3175 57.558C25.9674 57.2595 25.7661 56.8237 25.7661 56.3633C25.7661 55.9038 25.9683 55.468 26.3175 55.1695L36.4666 46.5276C37.1256 45.9657 38.1155 46.0453 38.6774 46.7044C39.2384 47.3643 39.1596 48.3542 38.4997 48.9152L29.7536 56.3633L38.4997 63.8114C39.1596 64.3733 39.2384 65.3632 38.6774 66.0222C38.3667 66.3872 37.9256 66.5745 37.4818 66.5745Z" fill="url(#paint0_linear)"/>
<path d="M57.5184 66.5745C57.0747 66.5745 56.6335 66.3872 56.3237 66.0222C55.7618 65.3632 55.8415 64.3733 56.5005 63.8114L65.2466 56.3633L56.5005 48.9152C55.8415 48.3542 55.7618 47.3643 56.3237 46.7044C56.8847 46.0453 57.8755 45.9657 58.5336 46.5276L68.6827 55.1695C69.0328 55.468 69.2341 55.9038 69.2341 56.3633C69.2341 56.8237 69.0328 57.2595 68.6827 57.558L58.5336 66.1999C58.2387 66.4511 57.8772 66.5745 57.5184 66.5745Z" fill="url(#paint1_linear)"/>
<path d="M43.9073 73.0566C43.7997 73.0566 43.6911 73.0452 43.5817 73.0224C42.7345 72.8439 42.1919 72.0115 42.3704 71.1643L48.6956 41.1329C48.8742 40.2857 49.7056 39.743 50.5537 39.9216C51.4009 40.1001 51.9436 40.9316 51.765 41.7797L45.4398 71.8111C45.284 72.5498 44.6329 73.0566 43.9073 73.0566Z" fill="url(#paint2_linear)"/>
<path d="M84.4693 89.418H10.5307C4.72444 89.418 0 84.6944 0 78.8873V16.1322C0 10.326 4.72444 5.60156 10.5307 5.60156H84.4693C90.2756 5.60156 95 10.326 95 16.1322V78.8873C95 84.6944 90.2756 89.418 84.4693 89.418ZM10.5307 8.73835C6.45388 8.73835 3.13679 12.0554 3.13679 16.1322V78.8873C3.13679 82.9641 6.45388 86.2812 10.5307 86.2812H84.4693C88.5461 86.2812 91.8632 82.9641 91.8632 78.8873V16.1322C91.8632 12.0554 88.5461 8.73835 84.4693 8.73835H10.5307Z" fill="#222222"/>
<path d="M93.4316 30.7159H1.5684C0.701927 30.7159 0 30.014 0 29.1475C0 28.2819 0.701927 27.5791 1.5684 27.5791H93.4316C94.2981 27.5791 95 28.2819 95 29.1475C95 30.014 94.2981 30.7159 93.4316 30.7159Z" fill="#222222"/>
<path d="M26.7979 23.2108C24.0619 23.2108 21.8345 20.9834 21.8345 18.2474C21.8345 15.5106 24.0619 13.2841 26.7979 13.2841C29.5347 13.2841 31.7612 15.5106 31.7612 18.2474C31.7612 20.9834 29.5347 23.2108 26.7979 23.2108ZM26.7979 16.4208C25.7913 16.4208 24.9713 17.2401 24.9713 18.2474C24.9713 19.2548 25.7913 20.074 26.7979 20.074C27.8052 20.074 28.6244 19.2548 28.6244 18.2474C28.6244 17.2401 27.8052 16.4208 26.7979 16.4208Z" fill="#222222"/>
<path d="M11.5474 23.1627C8.81055 23.1627 6.58398 20.9362 6.58398 18.1993C6.58398 15.4625 8.81055 13.236 11.5474 13.236C14.2842 13.236 16.5107 15.4625 16.5107 18.1993C16.5107 20.9362 14.2842 23.1627 11.5474 23.1627ZM11.5474 16.3728C10.5409 16.3728 9.72078 17.1928 9.72078 18.1993C9.72078 19.2067 10.5409 20.0259 11.5474 20.0259C12.5547 20.0259 13.3739 19.2067 13.3739 18.1993C13.3739 17.1928 12.5547 16.3728 11.5474 16.3728Z" fill="#222222"/>
<path d="M42.047 23.2583C39.311 23.2583 37.0845 21.0317 37.0845 18.2949C37.0845 15.559 39.311 13.3324 42.047 13.3324C44.7838 13.3324 47.0104 15.559 47.0104 18.2949C47.0104 21.0317 44.7838 23.2583 42.047 23.2583ZM42.047 16.4683C41.0405 16.4683 40.2213 17.2875 40.2213 18.2949C40.2213 19.3023 41.0405 20.1215 42.047 20.1215C43.0544 20.1215 43.8736 19.3023 43.8736 18.2949C43.8736 17.2875 43.0544 16.4683 42.047 16.4683Z" fill="#222222"/>
</g>
<defs>
<linearGradient id="paint0_linear" x1="47.8969" y1="31.4737" x2="-1.47595" y2="97.085" gradientUnits="userSpaceOnUse">
<stop stop-color="#FAD949"/>
<stop offset="1" stop-color="#F7C644"/>
</linearGradient>
<linearGradient id="paint1_linear" x1="78.0793" y1="31.4737" x2="28.706" y2="97.0835" gradientUnits="userSpaceOnUse">
<stop stop-color="#FAD949"/>
<stop offset="1" stop-color="#F7C644"/>
</linearGradient>
<linearGradient id="paint2_linear" x1="58.0993" y1="16.045" x2="-14.5109" y2="58.3587" gradientUnits="userSpaceOnUse">
<stop stop-color="#FAD949"/>
<stop offset="1" stop-color="#F7C644"/>
</linearGradient>
<clipPath id="clip0">
<rect width="95" height="95" fill="white"/>
</clipPath>
</defs>
</svg>
