<svg width="95" height="95" viewBox="0 0 95 95" fill="none" xmlns="http://www.w3.org/2000/svg">
<path d="M47.5 28.2031C36.86 28.2031 28.2031 36.86 28.2031 47.5C28.2031 58.14 36.86 66.7969 47.5 66.7969C58.14 66.7969 66.7969 58.14 66.7969 47.5C66.7969 36.86 58.14 28.2031 47.5 28.2031ZM31.1719 47.5C31.1719 46.9983 31.203 46.5055 31.2476 46.0156H63.7539C63.797 46.5055 63.8281 46.9983 63.8281 47.5C63.8281 48.0017 63.797 48.4945 63.7524 48.9844H31.2476C31.203 48.4945 31.1719 48.0017 31.1719 47.5ZM48.9844 43.0469H46.0156V37.1094H48.9844V43.0469ZM62.0261 40.0781C62.5085 41.0192 62.9019 42.0108 63.1958 43.0469H60.8594V40.0781H62.0261ZM60.086 37.1094H59.375C58.5556 37.1094 57.8906 37.7744 57.8906 38.5938V43.0469H51.9531V35.625C51.9531 34.8056 51.2881 34.1406 50.4688 34.1406H44.5312C43.7119 34.1406 43.0469 34.8056 43.0469 35.625V43.0469H37.1094V34.914C39.9341 32.5776 43.556 31.1719 47.5 31.1719C52.5588 31.1719 57.0876 33.486 60.086 37.1094ZM34.1406 38.141V43.0469H31.8042C32.3104 41.2701 33.103 39.6165 34.1406 38.141ZM38.141 60.8594H56.8575C54.2049 62.7238 50.9809 63.8281 47.4985 63.8281C44.0162 63.8281 40.7951 62.7238 38.141 60.8594ZM60.086 57.8906H34.914C33.4934 56.1717 32.4291 54.1545 31.8042 51.9531H63.1943C62.5694 54.1545 61.5066 56.1717 60.086 57.8906Z" fill="url(#paint0_linear)"/>
<path d="M91.8502 83.8138L74.7309 66.6945C75.3231 65.5738 75.1613 64.1562 74.2188 63.2136L71.8645 60.8594H83.125C85.5802 60.8594 87.5781 58.8614 87.5781 56.4062V5.9375C87.5781 3.48234 85.5802 1.48438 83.125 1.48438H5.9375C3.48234 1.48438 1.48438 3.48234 1.48438 5.9375V56.4062C1.48438 58.8614 3.48234 60.8594 5.9375 60.8594H26.1309C30.5974 67.977 38.4943 72.7344 47.5 72.7344C51.6251 72.7344 55.5112 71.7191 58.952 69.9571L63.2136 74.2188C63.7925 74.7977 64.5525 75.0871 65.3125 75.0871C65.7905 75.0871 66.2625 74.9595 66.6945 74.7309L83.8138 91.8502C84.8884 92.9248 86.3149 93.5156 87.832 93.5156C90.967 93.5156 93.5156 90.967 93.5156 87.832C93.5156 86.3149 92.9248 84.8884 91.8502 83.8138ZM5.9375 57.8906C5.11961 57.8906 4.45312 57.2241 4.45312 56.4062V5.9375C4.45312 5.11961 5.11961 4.45312 5.9375 4.45312H83.125C83.9429 4.45312 84.6094 5.11961 84.6094 5.9375V56.4062C84.6094 57.2241 83.9429 57.8906 83.125 57.8906H70.4692C71.3183 56.0203 71.9432 54.0327 72.3158 51.9531H77.1875C78.0069 51.9531 78.6719 51.2881 78.6719 50.4688V44.5312C78.6719 43.7119 78.0069 43.0469 77.1875 43.0469H72.3173C70.205 31.252 59.893 22.2656 47.5 22.2656C43.7935 22.2656 40.283 23.0895 37.1094 24.5308V17.8125C37.1094 16.9931 36.4444 16.3281 35.625 16.3281H29.6875C28.8681 16.3281 28.2031 16.9931 28.2031 17.8125V31.2728C25.4155 34.5815 23.4769 38.616 22.6827 43.0469H22.2656V8.90625C22.2656 8.08688 21.6006 7.42188 20.7812 7.42188H14.8438C14.0244 7.42188 13.3594 8.08688 13.3594 8.90625V43.0469H11.875C11.0556 43.0469 10.3906 43.7119 10.3906 44.5312V50.4688C10.3906 51.2881 11.0556 51.9531 11.875 51.9531H22.6827C23.0553 54.0327 23.6802 56.0203 24.5293 57.8906H5.9375ZM72.6587 46.0156H75.7031V48.9844H72.6587C72.6884 48.4901 72.7344 48.0017 72.7344 47.5C72.7344 46.9983 72.6884 46.5099 72.6587 46.0156ZM34.1406 26.1309C33.0986 26.7841 32.1041 27.501 31.1719 28.2952V19.2969H34.1406V26.1309ZM22.3413 48.9844H13.3594V46.0156H22.3413C22.3116 46.5099 22.2656 46.9983 22.2656 47.5C22.2656 48.0017 22.3116 48.4901 22.3413 48.9844ZM19.2969 43.0469H16.3281V10.3906H19.2969V43.0469ZM25.2344 47.5C25.2344 35.2227 35.2227 25.2344 47.5 25.2344C59.7773 25.2344 69.7656 35.2227 69.7656 47.5C69.7656 59.7773 59.7773 69.7656 47.5 69.7656C35.2227 69.7656 25.2344 59.7773 25.2344 47.5ZM61.606 68.4134C64.2853 66.5995 66.5995 64.2853 68.4134 61.606L72.1198 65.3125L65.3125 72.1198L61.606 68.4134ZM87.832 90.5469C87.1076 90.5469 86.4263 90.2648 85.9127 89.7513L68.8958 72.7344L72.7344 68.8958L89.7513 85.9127C90.2648 86.4263 90.5469 87.1076 90.5469 87.832C90.5469 89.3297 89.3297 90.5469 87.832 90.5469Z" fill="#222222"/>
<defs>
<linearGradient id="paint0_linear" x1="92.493" y1="0.461133" x2="15.7977" y2="157.126" gradientUnits="userSpaceOnUse">
<stop stop-color="#FAD949"/>
<stop offset="1" stop-color="#F7C644"/>
</linearGradient>
</defs>
</svg>
