<svg width="95" height="95" viewBox="0 0 95 95" fill="none" xmlns="http://www.w3.org/2000/svg">
<path d="M47.4976 3.71094C46.473 3.71094 45.6421 4.54163 45.6421 5.56641V16.6051C45.6421 17.6299 46.473 18.4606 47.4976 18.4606C48.5221 18.4606 49.353 17.6299 49.353 16.6051V5.56641C49.353 4.54163 48.5221 3.71094 47.4976 3.71094Z" fill="url(#paint0_linear)"/>
<path d="M36.9838 19.5531L32.5444 15.1176C31.8191 14.3933 30.6446 14.3938 29.9202 15.1188C29.196 15.8437 29.1966 17.0184 29.9213 17.7428L34.3609 22.1783C34.7233 22.5403 35.1979 22.7212 35.6724 22.7212C36.1476 22.7212 36.6226 22.5397 36.9849 22.1771C37.7091 21.4522 37.7086 20.2775 36.9838 19.5531Z" fill="url(#paint1_linear)"/>
<path d="M65.0786 15.1221C64.3537 14.3976 63.1788 14.3983 62.4544 15.1231L57.7347 19.8465C57.0105 20.5715 57.0111 21.7462 57.7358 22.4705C58.0982 22.8327 58.573 23.0136 59.0474 23.0136C59.5226 23.0136 59.9976 22.8322 60.36 22.4696L65.0797 17.7461C65.8039 17.0212 65.8034 15.8465 65.0786 15.1221Z" fill="url(#paint2_linear)"/>
<path d="M82.8467 52.6952H81.3493C82.5713 51.1023 83.3 49.112 83.3 46.9539V44.3352C83.3 39.123 79.0597 34.8827 73.8477 34.8827C68.6356 34.8827 64.3953 39.123 64.3953 44.335V46.3707L50.4365 32.4116C49.6618 31.6371 48.5226 31.3885 47.5002 31.7578C46.4782 31.3885 45.3386 31.6371 44.5637 32.4118L30.605 46.3707V44.335C30.6047 39.123 26.3644 34.8827 21.1523 34.8827C15.9403 34.8827 11.7 39.123 11.7 44.335V46.9537C11.7 49.112 12.4287 51.1021 13.6507 52.695H12.1533C5.45192 52.6952 0 58.1472 0 64.8486V89.4335C0 90.4583 0.830879 91.289 1.85547 91.289H9.69482C9.88037 91.289 10.0592 91.261 10.2283 91.2103C10.3973 91.261 10.5762 91.289 10.7617 91.289H31.543C32.5676 91.289 33.3984 90.4583 33.3984 89.4335V83.1249C33.3984 82.1001 32.5676 81.2694 31.543 81.2694C30.5184 81.2694 29.6875 82.1001 29.6875 83.1249V87.578H12.6172V66.4355C12.6172 65.4108 11.7863 64.5801 10.7617 64.5801C9.73713 64.5801 8.90625 65.4108 8.90625 66.4355V87.578H3.71094V64.8486C3.71094 60.1934 7.49813 56.4062 12.1533 56.4062H25.0488C25.5595 56.4062 26.0218 56.1997 26.3573 55.866C26.3586 55.8647 26.3597 55.864 26.361 55.8629L45.6336 36.5901C45.5072 40.4436 44.3086 44.1551 42.1477 47.3645L30.004 65.3993C29.7979 65.7056 29.6877 66.0665 29.6877 66.4355V68.4667C29.6877 69.4915 30.5186 70.3222 31.5432 70.3222C32.5677 70.3222 33.3986 69.4915 33.3986 68.4667V67.0018L45.2259 49.4368C46.1296 48.0948 46.8873 46.6768 47.5002 45.2049C48.1131 46.6768 48.8706 48.0948 49.7744 49.4368L61.6016 67.0018V89.4335C61.6016 90.4583 62.4324 91.289 63.457 91.289H84.2383C84.4238 91.289 84.6027 91.261 84.7717 91.2103C84.9408 91.261 85.1196 91.289 85.3052 91.289H93.1445C94.1691 91.289 95 90.4583 95 89.4335V64.8486C95 58.1472 89.5481 52.6952 82.8467 52.6952ZM26.8937 46.9537C26.8937 50.1197 24.3183 52.6952 21.1523 52.6952C17.9864 52.6952 15.411 50.1197 15.411 46.9539V44.3352C15.411 41.1692 17.9865 38.5937 21.1523 38.5937C24.3181 38.5937 26.8937 41.1692 26.8937 44.335V46.9537ZM68.1063 44.335C68.1063 41.1692 70.6819 38.5937 73.8477 38.5937C77.0135 38.5937 79.589 41.1692 79.589 44.335V46.9537C79.589 50.1197 77.0136 52.6952 73.8477 52.6952C70.6817 52.6952 68.1063 50.1197 68.1063 46.9539V44.335ZM91.2891 87.578H86.0938V73.8476C86.0938 72.8228 85.2629 71.9921 84.2383 71.9921C83.2137 71.9921 82.3828 72.8228 82.3828 73.8476V87.578H65.3125V66.4355C65.3125 66.0663 65.2023 65.7054 64.9961 65.3993L52.8525 47.3647C50.6916 44.1553 49.493 40.4438 49.3666 36.5903L68.6392 55.8629C68.6637 55.8874 68.6867 55.908 68.7089 55.9263C69.0379 56.2238 69.4728 56.4065 69.9512 56.4065H82.8467C87.5019 56.4065 91.2891 60.1937 91.2891 64.8489V87.578Z" fill="#222222"/>
<path d="M85.5499 65.1232C85.205 64.7781 84.7263 64.5796 84.2383 64.5796C83.7503 64.5796 83.2716 64.7781 82.9265 65.1232C82.5813 65.4684 82.3828 65.9471 82.3828 66.4351C82.3828 66.923 82.5812 67.4018 82.9265 67.7469C83.2716 68.092 83.7503 68.2905 84.2383 68.2905C84.7263 68.2905 85.205 68.092 85.5499 67.7469C85.895 67.4018 86.0938 66.923 86.0938 66.4351C86.0938 65.9471 85.8952 65.4702 85.5499 65.1232Z" fill="url(#paint3_linear)"/>
<path d="M32.8546 74.9479C32.5097 74.6028 32.031 74.4043 31.543 74.4043C31.055 74.4043 30.5763 74.6028 30.2312 74.9479C29.886 75.2931 29.6875 75.7718 29.6875 76.2598C29.6875 76.7478 29.8858 77.2265 30.2312 77.5716C30.5765 77.9167 31.055 78.1152 31.543 78.1152C32.031 78.1152 32.5097 77.9167 32.8546 77.5716C33.1997 77.2265 33.3984 76.7478 33.3984 76.2598C33.3984 75.7718 33.1999 75.2931 32.8546 74.9479Z" fill="url(#paint4_linear)"/>
<defs>
<linearGradient id="paint0_linear" x1="51.8238" y1="-6.89144" x2="21.6482" y2="8.61674" gradientUnits="userSpaceOnUse">
<stop stop-color="#FAD949"/>
<stop offset="1" stop-color="#F7C644"/>
</linearGradient>
<linearGradient id="paint1_linear" x1="42.9543" y1="8.71886" x2="26.7699" y2="41.7942" gradientUnits="userSpaceOnUse">
<stop stop-color="#FAD949"/>
<stop offset="1" stop-color="#F7C644"/>
</linearGradient>
<linearGradient id="paint2_linear" x1="71.2357" y1="8.51619" x2="54.4695" y2="42.7487" gradientUnits="userSpaceOnUse">
<stop stop-color="#FAD949"/>
<stop offset="1" stop-color="#F7C644"/>
</linearGradient>
<linearGradient id="paint3_linear" x1="88.5645" y1="61.9121" x2="81.19" y2="76.9761" gradientUnits="userSpaceOnUse">
<stop stop-color="#FAD949"/>
<stop offset="1" stop-color="#F7C644"/>
</linearGradient>
<linearGradient id="paint4_linear" x1="35.8692" y1="71.7368" x2="28.4947" y2="86.8008" gradientUnits="userSpaceOnUse">
<stop stop-color="#FAD949"/>
<stop offset="1" stop-color="#F7C644"/>
</linearGradient>
</defs>
</svg>
