<svg width="95" height="95" viewBox="0 0 95 95" fill="none" xmlns="http://www.w3.org/2000/svg">
<path d="M91.8333 77.5833H80.75V66.5C80.7483 64.7519 79.3314 63.335 77.5833 63.3333H66.5V52.25C66.4983 50.5019 65.0815 49.085 63.3333 49.0833H61.6069C60.8322 44.5177 56.8807 41.1745 52.2498 41.1667V35.7913C59.5132 33.9015 64.9869 27.918 66.224 20.5156C72.6748 19.8379 77.5748 14.403 77.5831 7.91681C77.5814 6.16869 76.1646 4.75182 74.4165 4.75012H66.4998V3.16687C66.4981 1.41857 65.0815 0.00169775 63.3333 0H31.6667C29.9185 0.00169775 28.5017 1.41857 28.5 3.16669V4.74993H20.5834C18.8352 4.75163 17.4184 6.1685 17.4167 7.91662C17.425 14.4028 22.3251 19.8379 28.7758 20.5155C30.0131 27.918 35.4866 33.9015 42.75 35.7911V41.1665C38.1193 41.1745 34.1676 44.5177 33.3931 49.0832H31.6667C29.9185 49.0849 28.5017 50.5017 28.5 52.2498V63.3331H17.4167C15.6686 63.3348 14.2517 64.7517 14.25 66.4998V77.5831H3.16669C1.41857 77.585 0.00169775 79.0019 0 80.75V91.8333C0.00169775 93.5814 1.41857 94.9983 3.16669 95H91.8333C93.5814 94.9983 94.9983 93.5814 95 91.8333V80.75C94.9983 79.0017 93.5814 77.585 91.8333 77.5833ZM66.5 7.91662H74.4166C74.4106 12.5502 71.0677 16.5059 66.5 17.2844V7.91662ZM28.5 17.2844C23.9323 16.5059 20.5894 12.5504 20.5834 7.91662H28.5V17.2844ZM31.6667 17.4167V3.16669H63.3333V17.4167C63.3333 26.1612 56.2445 33.2499 47.5001 33.2499C38.7557 33.2499 31.6667 26.1612 31.6667 17.4167ZM49.0833 36.4166V41.1665H45.9167V36.4166H49.0833ZM42.75 44.3332H52.25C55.137 44.3372 57.6572 46.289 58.3831 49.0832H36.6169C37.3428 46.2892 39.8632 44.3372 42.75 44.3332ZM91.8333 91.8333L3.16669 91.8356V80.75H14.25C15.9981 80.7483 17.415 79.3314 17.4167 77.5833V66.5H28.5C30.2481 66.4983 31.665 65.0815 31.6667 63.3333V52.25H63.3333V63.3333C63.335 65.0815 64.7519 66.4983 66.5 66.5H77.5833V77.5833C77.585 79.3314 79.0019 80.7483 80.75 80.75H91.8333V91.8333Z" fill="#222222"/>
<path d="M57.5118 69.4315L51.6732 68.5833L49.0624 63.2929C48.7657 62.7906 48.2256 62.4822 47.6422 62.4822C47.0587 62.4822 46.5186 62.7904 46.2219 63.2929L43.6113 68.5833L37.7728 69.4315C37.1761 69.518 36.6804 69.9359 36.494 70.5092C36.3078 71.0826 36.4632 71.7119 36.8952 72.1326L41.1196 76.2502L40.1223 82.0656C40.0206 82.6596 40.2649 83.2598 40.7525 83.6141C41.2401 83.9684 41.8866 84.0151 42.4201 83.7346L47.6424 80.9894L52.8647 83.7346C53.3981 84.015 54.0446 83.9684 54.5322 83.6141C55.0199 83.2598 55.2641 82.6596 55.1625 82.0656L54.1651 76.2502L58.3895 72.1326C58.8215 71.7119 58.9769 71.0824 58.7908 70.5092C58.6042 69.9359 58.1084 69.518 57.5118 69.4315ZM51.3586 74.5636C50.9854 74.9275 50.8149 75.4515 50.9024 75.9652L51.4985 79.4388L48.379 77.7989C47.9176 77.5567 47.3668 77.5567 46.9054 77.7989L43.7858 79.4388L44.3819 75.9652C44.4695 75.4513 44.2989 74.9275 43.9258 74.5636L41.4024 72.1043L44.8899 71.598C45.406 71.5231 45.8522 71.199 46.0829 70.7314L47.6422 67.5717L49.2015 70.7314C49.4322 71.199 49.8783 71.5231 50.3944 71.598L53.882 72.1043L51.3586 74.5636Z" fill="url(#paint0_linear)"/>
<defs>
<linearGradient id="paint0_linear" x1="73.8168" y1="47.0747" x2="32.4432" y2="135.6" gradientUnits="userSpaceOnUse">
<stop stop-color="#FAD949"/>
<stop offset="1" stop-color="#F7C644"/>
</linearGradient>
</defs>
</svg>
